 <svg  version="1.0" xmlns="http://www.w3.org/2000/svg"  width="450.000000pt" height="450.000000pt" viewBox="0 0 450.000000 450.000000"  preserveAspectRatio="xMidYMid meet">  <g transform="translate(0.000000,450.000000) scale(0.100000,-0.100000)" fill="#0d0d0d" stroke="none"> <path d="M2120 4047 c-3 -2 -39 -7 -82 -11 -42 -3 -82 -8 -90 -11 -7 -2 -26 -6 -43 -8 -61 -9 -262 -70 -323 -98 -35 -16 -67 -29 -72 -29 -5 0 -29 -11 -52 -24 -24 -13 -74 -40 -113 -61 -38 -20 -72 -41 -75 -46 -3 -4 -17 -14 -32 -21 -86 -45 -295 -238 -388 -358 -19 -25 -39 -50 -45 -57 -5 -7 -16 -19 -22 -27 -7 -8 -13 -17 -13 -20 0 -3 -13 -24 -29 -48 -211 -314 -317 -742 -281 -1132 13 -135 11 -123 45 -261 48 -195 124 -377 221 -528 24 -37 44 -70 44 -73 0 -4 12 -21 28 -39 15 -18 50 -61 77 -95 58 -73 162 -180 174 -180 5 0 23 -16 40 -35 17 -20 31 -33 31 -29 0 5 33 -19 91 -69 8 -7 22 -17 30 -20 8 -4 28 -16 44 -27 17 -10 49 -29 73 -41 23 -13 42 -26 42 -30 0 -4 23 -15 50 -24 28 -9 50 -21 50 -27 0 -6 7 -8 15 -4 8 3 21 -1 29 -9 8 -8 21 -15 29 -15 8 0 36 -10 63 -22 27 -12 54 -23 59 -25 6 -1 30 -7 55 -13 25 -6 52 -13 60 -17 8 -3 19 -5 24 -4 4 1 14 -3 21 -9 25 -21 452 -53 495 -37 8 3 58 8 110 11 94 5 186 20 225 35 40 16 92 31 108 31 10 0 34 9 54 20 20 10 40 17 45 14 4 -3 8 0 8 5 0 6 8 11 18 11 10 0 23 5 30 12 7 7 12 9 12 5 0 -3 30 10 68 30 37 20 88 47 113 59 25 13 52 30 59 39 7 8 19 15 26 15 8 0 14 5 14 10 0 6 6 10 13 10 7 0 23 9 35 20 12 11 24 20 26 20 6 0 36 24 60 46 6 6 41 37 78 70 59 53 114 111 203 216 31 36 41 50 75 103 10 17 22 35 27 40 4 6 19 30 32 55 13 25 29 52 36 60 56 72 172 416 197 585 16 114 16 436 -1 535 -39 232 -119 456 -223 629 -21 34 -38 67 -38 72 0 5 -3 9 -8 9 -4 0 -16 16 -26 35 -10 19 -26 42 -35 52 -9 10 -42 50 -74 90 -32 39 -90 102 -130 140 -77 72 -210 183 -220 183 -4 0 -37 20 -74 43 -99 64 -236 132 -303 152 -14 4 -27 11 -30 16 -3 4 -17 9 -30 12 -34 5 -141 36 -165 48 -11 5 -38 11 -60 13 -22 2 -64 9 -93 15 -56 11 -384 27 -392 18z m313 -33 c400 -32 834 -251 1118 -563 538 -594 618 -1459 196 -2136 -345 -555 -990 -881 -1634 -827 -233 20 -423 72 -633 173 -575 277 -951 827 -999 1461 -51 673 285 1315 868 1660 113 67 192 102 332 149 253 85 453 107 752 83z"/> <path d="M2066 3929 c-600 -63 -1127 -452 -1367 -1008 -254 -590 -148 -1281 274 -1772 l37 -44 21 25 c12 14 50 55 85 92 47 48 69 65 83 61 12 -3 17 -11 14 -19 -3 -9 2 -14 14 -14 30 0 57 -36 57 -77 0 -80 -113 -125 -170 -68 l-25 26 -29 -24 -28 -24 46 -45 c229 -218 521 -371 842 -439 91 -20 135 -23 325 -23 191 0 234 3 325 22 716 155 1244 713 1345 1425 81 567 -145 1154 -585 1521 -353 295 -808 433 -1264 385z m384 -25 c20 -4 29 -9 20 -12 -30 -11 -43 -33 -37 -67 4 -24 1 -35 -9 -39 -8 -3 -14 -2 -14 3 0 18 -50 27 -131 24 -83 -4 -127 8 -75 21 29 7 38 28 27 59 -9 22 -8 22 88 20 53 -2 112 -6 131 -9z m-341 -22 c-10 -14 -19 -39 -19 -56 0 -17 -7 -39 -15 -49 -15 -21 -10 -47 9 -47 6 0 12 -9 12 -20 0 -11 -3 -20 -7 -20 -8 0 -80 95 -99 130 -7 13 -19 31 -27 39 -8 8 -11 17 -5 23 12 12 89 26 134 25 l36 -1 -19 -24z m101 8 c13 -8 13 -11 -2 -27 -14 -13 -20 -14 -30 -5 -21 21 -28 13 -28 -28 l0 -40 43 0 42 0 -25 -20 c-14 -11 -31 -20 -38 -20 -10 0 -13 -17 -11 -66 2 -48 -1 -68 -12 -75 -22 -14 -28 -11 -27 14 1 12 1 46 0 76 -2 48 -4 53 -22 48 -23 -6 -27 8 -5 17 10 3 15 19 15 44 0 64 56 110 100 82z m402 -16 c9 -6 12 -7 113 -29 39 -8 72 -20 73 -25 2 -6 12 -10 23 -10 27 0 99 -30 99 -42 0 -5 5 -6 11 -2 6 3 14 1 18 -5 4 -6 18 -13 30 -16 13 -2 37 -13 54 -24 18 -11 47 -28 65 -38 17 -9 32 -20 32 -25 0 -4 7 -8 15 -8 8 0 15 -4 15 -10 0 -5 6 -10 13 -10 7 0 22 -9 34 -19 11 -10 34 -26 51 -35 17 -9 36 -25 42 -36 6 -11 15 -20 21 -20 14 0 229 -219 229 -234 0 -3 8 -15 18 -25 52 -58 105 -143 168 -272 66 -134 116 -282 145 -429 19 -94 23 -149 23 -305 1 -104 -2 -198 -6 -208 -7 -17 -10 -17 -30 -3 -28 20 -57 20 -84 2 -18 -13 -22 -12 -41 10 l-22 25 25 10 c21 7 25 14 20 33 -3 13 1 43 10 67 23 64 25 84 14 115 -8 21 -7 31 5 44 16 18 19 38 9 64 -11 28 -21 17 -20 -20 1 -41 -19 -57 -29 -23 -6 17 -9 19 -16 8 -15 -24 -10 -51 11 -56 30 -8 33 -36 10 -113 -17 -57 -19 -74 -9 -86 6 -8 9 -17 6 -21 -4 -3 -9 2 -13 11 -8 21 -24 21 -24 0 0 -32 -25 -6 -28 29 -2 27 1 37 11 37 16 0 53 37 45 45 -3 3 -13 -4 -23 -15 -10 -11 -22 -20 -28 -20 -12 0 1 90 15 108 8 9 7 20 -1 39 -9 20 -9 28 0 33 7 5 7 10 1 14 -18 11 -33 -21 -28 -61 l6 -38 -14 30 c-13 27 -12 33 5 60 10 17 23 29 29 27 6 -1 10 18 10 43 0 47 14 63 46 51 14 -5 13 -9 -4 -33 -28 -42 -30 -56 -10 -75 17 -17 18 -17 18 15 0 17 7 41 15 51 21 28 19 43 -10 62 -23 15 -27 15 -50 0 -16 -10 -25 -26 -25 -41 0 -14 -14 -50 -31 -81 l-32 -56 21 -41 c12 -23 22 -36 22 -28 0 8 3 11 6 8 4 -4 2 -12 -3 -19 -20 -25 -24 -119 -7 -155 9 -18 21 -33 28 -33 7 0 7 -3 1 -8 -16 -11 -35 -60 -35 -88 0 -14 9 -39 21 -55 16 -23 28 -29 57 -29 26 0 41 -6 49 -19 8 -13 19 -18 33 -14 16 4 20 1 20 -19 0 -33 -9 -40 -27 -22 -20 20 -36 13 -43 -17 -6 -26 -22 -30 -57 -15 -17 7 -23 18 -23 42 0 51 -18 49 -22 -2 -3 -44 -2 -46 32 -60 19 -8 46 -14 60 -12 21 3 25 8 25 36 l0 33 17 -21 c22 -27 22 -39 2 -68 -18 -26 -58 -29 -111 -7 -47 20 -53 19 -53 -6 0 -11 -4 -17 -10 -14 -5 3 -10 17 -10 30 0 18 -7 25 -30 30 -23 5 -30 12 -30 30 0 24 1 24 35 9 35 -14 36 -14 45 11 6 15 10 32 10 39 0 6 6 18 13 25 10 11 9 12 -6 4 -10 -5 -24 -20 -30 -33 -9 -18 -21 -24 -47 -24 -32 -1 -35 -4 -38 -32 -3 -27 1 -33 27 -42 17 -6 31 -17 31 -24 0 -7 4 -20 10 -28 7 -12 13 -12 33 -1 21 11 30 11 55 -2 17 -8 47 -14 67 -12 30 2 35 -1 29 -14 -3 -9 -11 -28 -16 -43 -11 -31 -29 -36 -48 -13 -20 24 -109 65 -140 65 -29 0 -70 -39 -70 -66 0 -8 -8 -22 -19 -33 -26 -26 -17 -62 25 -89 18 -12 38 -22 44 -22 5 0 10 -4 10 -8 0 -4 15 -13 33 -20 62 -23 64 -26 31 -73 l-29 -42 -8 41 c-4 22 -14 46 -22 52 -12 10 -13 7 -5 -22 15 -49 12 -64 -13 -94 -38 -44 -106 -32 -140 26 -35 59 -11 130 43 130 39 0 54 -29 47 -92 -4 -28 -2 -48 3 -48 19 0 50 40 50 64 0 33 -17 43 -23 14 -3 -19 -5 -17 -6 7 -3 53 -51 92 -93 76 -71 -27 -77 -128 -13 -193 36 -36 61 -41 114 -24 l23 8 -18 -32 c-20 -35 -270 -290 -284 -290 -4 0 -30 -17 -57 -39 -27 -21 -63 -46 -80 -55 -17 -8 -37 -21 -45 -28 -21 -21 -217 -118 -236 -118 -10 0 -22 -4 -27 -8 -8 -7 -66 -27 -110 -38 -267 -67 -258 -65 -441 -70 -193 -5 -355 17 -519 69 -5 2 -37 12 -70 22 -33 10 -76 26 -95 35 -19 10 -59 28 -87 41 -29 12 -53 27 -53 32 0 6 -3 8 -6 5 -3 -4 -15 -1 -27 6 -26 14 -80 48 -87 56 -3 3 -16 11 -30 18 -14 7 -45 31 -70 53 -24 21 -47 39 -51 39 -9 0 -109 101 -109 111 0 4 16 1 35 -7 42 -17 102 -18 133 0 30 16 62 65 62 94 0 32 -29 92 -44 92 -7 0 -23 11 -36 25 -13 14 -32 25 -43 25 -19 0 -107 -84 -107 -102 0 -5 -4 -7 -9 -3 -5 3 -12 -3 -15 -12 -3 -10 -16 -24 -28 -32 -20 -12 -24 -10 -59 28 -69 74 -203 288 -230 366 -8 22 -18 43 -24 47 -6 5 -2 8 8 8 11 0 17 -8 17 -24 0 -15 10 -30 26 -41 24 -15 29 -16 58 -2 17 9 38 18 46 21 54 20 79 51 80 98 0 30 -8 47 -36 78 -39 43 -58 48 -90 26 -11 -8 -36 -16 -55 -18 -29 -2 -37 -10 -55 -44 l-21 -42 -17 49 c-10 26 -19 56 -21 66 -2 10 -4 18 -5 18 -1 0 -3 8 -5 18 -4 22 1 21 34 -2 14 -10 35 -21 46 -23 26 -4 31 25 8 47 -19 20 -28 65 -19 101 4 13 25 34 48 48 38 23 44 24 70 10 15 -8 29 -20 30 -27 4 -36 3 -43 -5 -54 -11 -15 11 -70 31 -78 46 -18 82 70 54 135 -34 82 -147 126 -228 90 -46 -20 -77 -44 -68 -52 2 -3 -2 -11 -11 -18 -8 -7 -15 -19 -15 -28 0 -33 -11 -2 -21 59 -11 68 -15 386 -5 435 3 16 8 48 11 71 3 23 12 65 20 95 9 29 18 68 21 86 9 45 23 40 17 -7 -6 -46 18 -104 61 -143 25 -23 27 -29 16 -43 -11 -14 -11 -21 4 -46 12 -20 15 -40 11 -62 l-6 -32 20 23 c25 29 55 28 75 -3 20 -30 20 -55 1 -81 -13 -17 -14 -16 -5 15 5 19 6 40 1 49 -12 22 -60 22 -72 0 -14 -27 -29 -12 -29 28 0 21 -4 33 -10 29 -15 -9 -12 -61 4 -74 11 -9 12 -18 3 -40 -8 -21 -6 -44 6 -92 8 -35 13 -76 10 -90 -5 -29 7 -41 47 -45 47 -6 54 7 55 103 0 49 6 98 13 110 18 33 15 62 -13 109 -25 42 -30 93 -10 95 48 4 63 11 97 47 44 48 51 51 38 20 -5 -13 -17 -68 -26 -122 -32 -186 -9 -422 60 -624 14 -39 22 -72 18 -72 -4 0 -2 -4 3 -8 6 -4 23 -34 38 -67 32 -66 125 -210 172 -264 75 -87 197 -196 245 -220 14 -7 5 4 -20 25 -145 120 -296 305 -372 459 -199 398 -176 879 61 1255 31 49 79 116 107 148 l52 58 -84 91 c-59 64 -82 96 -78 108 4 9 13 14 20 11 9 -3 14 2 14 13 0 29 35 53 77 53 83 0 126 -111 65 -172 l-28 -28 22 -25 22 -25 37 38 c143 146 414 277 651 315 323 52 657 -20 928 -200 258 -171 444 -437 529 -755 29 -109 31 -125 31 -310 1 -217 -10 -280 -77 -460 -19 -50 -31 -90 -26 -90 7 0 18 26 53 125 8 22 15 33 15 24 1 -18 -33 -122 -51 -157 -6 -12 -18 -20 -25 -18 -8 3 -22 -13 -37 -42 -39 -75 -125 -194 -206 -284 -61 -67 -67 -77 -32 -49 49 38 102 90 102 99 0 3 12 17 27 29 14 13 23 23 19 23 -4 0 8 18 27 41 20 22 48 65 64 94 15 30 37 58 49 64 28 12 85 156 83 209 -1 20 8 78 20 127 18 79 20 116 18 307 -3 197 -2 216 13 208 30 -16 80 6 80 35 0 10 12 12 43 8 23 -3 39 -3 35 1 -3 4 -2 21 2 38 19 63 -74 145 -116 103 -22 -22 -43 -18 -56 10 -6 14 -15 25 -20 25 -16 0 -8 29 11 40 30 16 51 12 83 -15 37 -31 57 -20 50 26 -4 25 1 35 22 53 l28 21 -25 27 c-21 23 -30 26 -54 19 -15 -5 -38 -4 -51 0 -17 7 -25 4 -35 -12 -6 -11 -33 -32 -59 -46 -27 -14 -48 -30 -48 -35 0 -16 -15 -8 -25 15 -10 20 -8 22 19 24 16 1 32 6 35 10 3 5 22 17 41 27 19 10 43 26 53 34 23 20 21 71 -3 102 -11 14 -20 30 -20 36 0 35 -69 71 -85 44 -3 -5 -11 -10 -17 -10 -7 0 -7 5 1 14 7 8 16 28 20 44 8 25 5 35 -19 63 -25 31 -31 33 -89 34 -58 0 -64 -2 -91 -33 -16 -19 -32 -42 -35 -53 -9 -26 -17 -24 -51 13 -16 17 -22 29 -13 26 8 -3 26 3 40 13 13 10 27 19 32 19 14 0 102 44 109 54 16 23 8 46 -15 46 -13 0 -27 -4 -32 -9 -6 -5 -20 -12 -33 -16 -21 -6 -22 -4 -17 26 3 17 10 40 15 49 12 22 -19 54 -47 48 -17 -3 -73 -98 -73 -125 0 -7 -4 -13 -10 -13 -5 0 -7 -6 -5 -12 3 -7 1 -19 -4 -27 -7 -10 -13 -11 -29 -2 -26 14 -19 37 14 45 39 10 34 21 -40 79 -25 21 -27 26 -17 46 l12 22 33 -20 c30 -19 34 -19 54 -5 28 20 28 35 -3 64 -48 45 -23 69 27 26 30 -25 68 -25 90 1 10 13 7 19 -17 40 -17 14 -42 36 -57 49 -17 16 -38 24 -61 24 -28 0 -40 -7 -63 -37 -15 -21 -33 -45 -41 -53 -57 -65 -96 -129 -89 -146 3 -8 -1 -14 -9 -14 -8 0 -15 4 -15 8 0 5 -29 21 -65 37 -65 27 -86 46 -42 38 28 -6 47 16 75 86 29 71 28 91 -8 131 -16 18 -30 30 -30 26 0 -4 -5 -4 -12 0 -7 4 -27 9 -44 11 -26 3 -37 -3 -58 -28 -14 -17 -26 -37 -26 -45 0 -9 -10 -14 -27 -14 -16 1 -35 0 -43 -1 -53 -8 -89 27 -68 64 13 24 29 21 54 -10 22 -27 24 -27 51 -13 41 23 41 53 -1 85 -49 38 -109 33 -151 -11 l-31 -32 4 34 c2 19 -1 41 -7 48 -10 11 -9 16 4 23 10 6 17 23 17 44 0 19 2 37 4 40 4 7 79 -7 96 -17z m-719 -2 c-6 -4 -16 -39 -22 -77 -6 -39 -15 -92 -20 -120 -16 -83 -13 -123 8 -134 16 -9 22 -4 41 36 38 80 85 95 121 37 18 -30 23 -32 79 -31 52 0 62 3 76 25 11 17 15 37 11 63 -4 29 0 44 14 60 l19 22 1 -24 c1 -13 1 -45 -1 -71 -1 -35 3 -51 19 -67 l21 -21 -47 0 c-118 -1 -297 -37 -423 -86 -85 -33 -210 -95 -233 -115 -9 -9 -29 -22 -44 -30 -29 -15 -30 -15 -111 -84 -29 -25 -55 -45 -57 -45 -3 0 4 17 15 37 11 21 20 55 20 76 0 37 0 37 28 24 39 -18 81 -10 94 18 6 14 14 22 19 19 10 -6 49 35 49 52 0 9 8 10 32 3 41 -11 41 -11 32 3 -5 7 -2 9 9 5 32 -12 86 59 87 114 0 12 -36 46 -55 53 -14 4 -21 14 -20 33 0 38 -36 56 -76 36 -40 -20 -72 -68 -66 -99 2 -13 1 -27 -4 -29 -8 -6 -33 17 -48 43 -9 15 -11 15 -30 -2 -29 -26 -26 -59 9 -108 26 -36 38 -68 26 -68 -14 0 -36 14 -36 22 0 19 -62 88 -79 88 -24 0 -44 -45 -31 -69 13 -25 3 -32 -28 -20 -37 14 -73 3 -108 -34 -51 -52 -58 -74 -38 -105 10 -15 26 -33 36 -40 10 -7 18 -19 18 -25 0 -8 -3 -8 -8 -2 -4 6 -13 11 -21 13 -8 2 -26 11 -40 21 -14 9 -32 16 -38 15 -7 -1 -20 -2 -29 -3 -8 0 -24 -21 -35 -46 -11 -25 -23 -45 -28 -45 -10 0 -81 -103 -81 -119 0 -6 16 -28 36 -47 l35 -36 -40 7 c-24 4 -48 2 -61 -5 -30 -16 -60 -69 -60 -105 1 -34 44 -90 64 -82 15 6 40 -29 26 -38 -5 -3 -9 -27 -9 -54 2 -60 -31 -101 -82 -103 -57 -2 -80 2 -74 11 3 6 -2 14 -11 19 -12 7 -15 17 -9 41 3 17 12 31 18 31 7 0 18 9 25 20 10 17 10 26 0 48 -17 36 -47 38 -81 6 -33 -31 -41 -28 -23 7 7 14 16 38 20 54 4 16 23 62 42 102 19 40 34 76 34 79 0 3 14 25 30 49 17 24 30 47 30 52 0 4 11 21 25 37 14 16 25 33 25 37 0 4 11 19 25 33 14 14 25 30 25 36 0 12 231 244 274 275 15 11 38 30 51 41 38 34 115 84 131 84 7 0 14 5 14 10 0 6 7 10 15 10 8 0 23 9 32 20 10 11 20 20 24 20 4 0 23 7 43 15 20 8 39 16 43 17 5 1 14 8 21 15 12 12 34 17 55 14 4 0 7 4 7 9 0 6 14 10 30 10 17 0 30 4 30 9 0 7 67 26 78 22 1 -1 18 5 37 13 19 8 35 12 35 8 0 -3 5 -1 12 6 7 7 19 12 28 12 10 0 11 -3 3 -8z m598 -26 c-12 -31 -41 -35 -41 -6 0 12 9 24 23 29 28 11 30 9 18 -23z m-477 -101 c79 -118 83 -126 64 -136 -11 -6 -21 -9 -22 -7 -1 2 -13 20 -25 41 -13 21 -29 36 -36 33 -7 -2 -33 -7 -58 -11 l-45 -7 -7 -49 c-4 -29 -12 -49 -19 -49 -25 0 37 308 61 310 1 0 40 -56 87 -125z m282 40 c-7 -19 -1 -19 29 1 26 17 60 12 68 -10 3 -8 -5 -18 -19 -25 -19 -9 -24 -8 -24 4 0 18 -31 20 -48 3 -7 -7 -12 -39 -12 -73 0 -57 -2 -63 -26 -74 -23 -10 -26 -10 -20 4 3 9 6 52 6 95 0 66 3 79 18 83 31 8 34 7 28 -8z m183 -17 c0 -7 -6 -46 -12 -87 -10 -62 -16 -75 -35 -82 -22 -8 -23 -7 -18 19 3 15 8 50 12 77 4 28 11 58 16 68 10 20 38 23 37 5z m-97 -39 c11 7 22 11 24 9 2 -2 -2 -34 -8 -71 -8 -52 -8 -70 2 -82 17 -20 39 -19 64 4 21 19 21 18 52 -15 17 -19 29 -36 27 -38 -2 -2 -28 2 -56 10 -29 7 -89 15 -134 16 -46 2 -83 6 -83 9 0 3 10 16 22 29 17 18 23 39 26 87 4 63 5 64 24 46 16 -14 22 -15 40 -4z m285 -5 c26 -26 26 -27 8 -40 -26 -19 -35 -18 -35 5 0 47 -64 54 -89 9 -32 -57 27 -124 89 -101 34 13 39 7 13 -14 -37 -29 -63 -34 -93 -18 -34 18 -50 43 -50 80 0 88 98 138 157 79z m198 -69 c31 -30 31 -39 -1 -111 -26 -59 -38 -74 -62 -74 -9 0 -10 5 -3 19 10 18 8 19 -28 14 -33 -4 -41 -1 -59 22 -27 34 -28 49 -2 75 24 24 91 27 113 5 18 -17 27 -10 27 21 0 32 -39 53 -55 30 -7 -9 -24 -16 -39 -16 -24 0 -25 2 -16 20 16 31 93 28 125 -5z m-1225 -5 c0 -16 -7 -20 -34 -20 -39 0 -69 -26 -42 -36 9 -4 33 -4 52 -1 72 12 109 -26 80 -82 -19 -36 -71 -56 -110 -42 -27 11 -31 18 -18 38 5 8 13 9 22 3 21 -13 74 -12 87 1 25 25 2 39 -63 39 -53 0 -65 3 -74 20 -6 12 -8 29 -5 40 15 49 105 83 105 40z m1557 -85 c25 -19 50 -35 54 -35 5 0 9 -4 9 -10 0 -19 -46 -10 -80 15 -19 14 -37 25 -41 25 -4 0 -17 -13 -28 -29 l-21 -29 41 -30 c36 -27 38 -31 20 -37 -13 -4 -31 2 -51 16 l-30 23 -30 -35 c-16 -18 -29 -37 -30 -41 0 -10 82 -68 97 -68 20 0 16 -20 -4 -22 -35 -3 -40 0 -92 38 -28 21 -49 44 -47 51 3 7 37 55 77 108 47 63 78 95 91 95 10 0 40 -16 65 -35z m-1694 -59 c38 -58 44 -73 35 -89 -10 -19 -11 -19 -20 -3 -9 15 -12 13 -26 -16 -13 -25 -24 -34 -47 -36 -27 -3 -35 4 -73 58 -35 52 -40 65 -31 82 10 19 13 16 46 -33 45 -68 61 -81 83 -69 32 17 30 39 -10 96 -33 47 -37 59 -27 75 14 22 11 24 70 -65z m50 12 c-7 -14 -31 -9 -37 8 -10 26 5 37 24 17 9 -10 16 -21 13 -25z m1121 25 c3 -10 9 -24 12 -30 8 -18 -44 -16 -76 2 -20 11 -21 14 -7 15 10 0 25 7 33 15 20 20 30 19 38 -2z m578 -139 c4 -3 -7 -37 -23 -76 -16 -39 -28 -72 -27 -74 2 -1 32 11 67 27 36 16 69 28 75 26 18 -7 -162 -86 -182 -80 -18 4 -16 10 17 94 33 82 53 104 73 83z m-2082 -184 c48 -34 56 -45 52 -65 l-4 -25 -37 29 c-85 66 -121 74 -121 26 0 -16 15 -32 50 -56 34 -24 50 -41 50 -56 0 -13 -3 -23 -6 -23 -3 0 -33 19 -66 42 -47 33 -63 40 -76 31 -34 -21 -24 -46 33 -86 57 -39 60 -43 46 -65 -11 -19 -151 82 -151 109 0 22 11 24 28 7 9 -9 12 -4 12 23 0 41 15 59 48 59 14 0 21 4 17 11 -18 27 24 95 52 84 8 -3 41 -23 73 -45z m2254 -11 c29 -23 34 -60 10 -83 -20 -21 -40 -20 -89 3 -41 20 -35 28 8 12 33 -13 60 7 55 40 -2 18 -10 25 -31 27 -35 4 -64 -19 -72 -58 -9 -39 9 -68 48 -79 l32 -9 -35 -1 c-69 -2 -113 55 -85 109 30 58 110 77 159 39z m-2264 -64 c8 -8 27 -16 41 -20 22 -5 28 -2 39 24 10 25 15 29 26 20 18 -15 18 -34 -2 -50 -24 -20 -124 -155 -124 -168 0 -6 -3 -11 -8 -11 -4 0 -14 -15 -21 -32 -22 -50 -53 -99 -58 -94 -3 3 -1 11 3 18 10 16 12 23 20 67 4 18 15 42 25 52 11 11 19 26 19 35 0 16 -47 66 -90 96 -23 15 -23 17 -5 17 11 1 40 -15 64 -34 47 -38 60 -42 79 -23 27 27 13 62 -38 98 -27 19 -50 38 -50 43 0 9 58 -19 80 -38z m2224 30 c-6 -16 -34 -21 -34 -7 0 13 11 22 26 22 8 0 11 -6 8 -15z m38 -97 c-9 -9 -15 -9 -24 0 -9 9 -7 12 12 12 19 0 21 -3 12 -12z m98 -3 c10 -12 9 -16 -4 -21 -14 -5 -12 -10 13 -25 31 -18 48 -57 38 -83 -9 -23 -133 -84 -151 -74 -9 5 -16 12 -16 16 0 4 29 23 65 41 71 38 84 66 44 94 -19 14 -26 12 -78 -18 -52 -29 -60 -31 -77 -17 -10 8 -14 16 -9 18 6 3 39 22 75 43 74 45 83 47 100 26z m-181 -51 c-9 -11 -15 -11 -25 -3 -19 15 -18 17 11 17 21 0 23 -3 14 -14z m164 -28 c7 -17 -1 -24 -70 -59 -51 -26 -53 -27 -63 -7 -6 11 -9 20 -8 21 2 0 14 3 28 5 13 2 33 13 45 23 18 17 39 28 56 30 4 1 9 -5 12 -13z m-2483 -16 c0 -5 -4 -10 -10 -10 -5 0 -10 5 -10 10 0 6 5 10 10 10 6 0 10 -4 10 -10z m-23 -27 c49 -22 63 -33 63 -50 0 -17 -4 -21 -16 -16 -14 5 -15 1 -10 -24 13 -58 -51 -99 -97 -62 -21 16 -27 29 -27 59 0 21 6 43 15 50 20 17 19 27 -5 33 -34 9 -68 -41 -40 -58 13 -8 13 -55 0 -55 -14 0 -30 35 -30 64 0 29 45 86 68 86 10 0 45 -12 79 -27z m2605 -76 c9 -11 19 -11 40 -3 22 8 31 7 44 -6 15 -14 13 -17 -20 -28 -20 -6 -36 -13 -36 -15 0 -1 7 -19 15 -38 22 -52 19 -55 -15 -17 -16 18 -30 37 -30 41 0 4 -22 -1 -50 -13 -60 -25 -73 -53 -39 -79 17 -13 19 -19 9 -19 -29 0 -60 30 -60 58 0 40 11 50 74 76 32 13 53 27 47 30 -14 9 -14 26 -1 26 5 0 15 -6 22 -13z m-2581 -167 c-20 -50 -30 -66 -30 -50 -1 14 -10 42 -20 63 l-19 37 22 0 c11 0 32 9 46 20 14 10 26 16 28 12 1 -4 -11 -41 -27 -82z m-261 71 c0 -5 3 -16 6 -24 3 -9 -2 -18 -14 -21 -21 -7 -42 -45 -42 -77 0 -11 13 -34 29 -50 76 -76 226 14 192 114 -18 49 -3 44 20 -7 24 -55 19 -92 -17 -136 -33 -38 -86 -53 -136 -38 -43 13 -104 73 -114 113 -9 36 4 93 27 116 20 20 49 26 49 10z m2789 -142 c-27 -27 -23 -84 5 -84 16 0 22 12 31 58 16 81 45 98 90 52 18 -18 25 -35 25 -65 0 -43 0 -43 -23 -34 -11 4 -14 16 -10 43 3 25 1 41 -7 46 -16 10 -30 -12 -30 -47 0 -35 -19 -75 -38 -83 -25 -9 -76 28 -86 63 -7 25 -5 41 8 69 16 34 18 35 36 18 18 -16 18 -17 -1 -36z m-2739 -174 c0 -19 -4 -35 -10 -35 -5 0 -10 6 -10 13 0 8 -9 22 -20 32 -15 14 -17 21 -9 31 19 24 49 -1 49 -41z m8 -110 c-8 -18 -8 -31 1 -53 14 -33 20 -177 8 -189 -5 -4 -13 0 -19 10 -9 18 -11 18 -29 1 -10 -9 -19 -14 -19 -9 0 4 7 13 15 19 14 10 13 18 -5 70 -28 82 -27 114 5 126 15 6 25 17 25 30 0 11 7 20 15 20 12 0 13 -5 3 -25z m40 -324 c20 -11 45 -33 55 -50 22 -38 25 -97 5 -117 -13 -13 -17 -12 -33 6 -14 16 -16 23 -7 32 17 17 15 60 -4 86 -36 52 -110 48 -159 -9 -36 -44 -36 -120 1 -154 15 -14 21 -25 14 -25 -7 0 -30 17 -51 39 -31 31 -39 46 -39 75 0 111 112 171 218 117z m2870 -31 c-12 -17 -18 -35 -14 -46 6 -16 8 -15 27 2 11 10 28 31 37 46 29 49 71 48 98 -3 12 -25 13 -37 4 -65 -14 -43 -57 -75 -71 -53 -13 21 -11 27 11 34 26 8 54 50 46 70 -10 27 -34 16 -66 -30 -22 -32 -38 -45 -55 -45 -47 0 -71 72 -39 118 12 18 19 20 30 12 11 -10 10 -17 -8 -40z m-2827 -270 c25 -24 30 -37 27 -67 -3 -35 -8 -40 -69 -74 -60 -32 -68 -34 -85 -21 -13 10 -15 16 -6 19 18 7 15 20 -8 26 -31 8 -45 49 -29 83 11 23 22 30 50 32 30 3 41 -2 63 -28 14 -17 26 -38 26 -47 0 -18 20 -13 34 10 13 20 -3 52 -25 52 -19 0 -60 30 -52 38 15 15 46 5 74 -23z m2839 -157 c0 -13 -2 -23 -4 -23 -3 0 -32 16 -65 35 -68 40 -86 43 -101 16 -19 -36 -10 -50 50 -83 45 -25 60 -38 60 -55 0 -13 -2 -23 -4 -23 -2 0 -41 21 -85 46 -59 33 -81 51 -79 62 2 10 11 16 21 14 13 -2 17 5 17 32 0 25 7 40 26 55 l27 21 68 -37 c54 -29 69 -42 69 -60z m-55 -18 l53 -32 -16 -33 c-15 -30 -16 -31 -23 -12 -5 12 -33 35 -63 52 -41 23 -53 35 -49 49 6 24 29 18 98 -24z"/> <path d="M2106 3499 c-267 -37 -512 -157 -699 -342 -112 -111 -176 -199 -247 -342 -103 -209 -145 -403 -137 -635 10 -255 77 -468 213 -673 67 -100 191 -235 254 -276 31 -21 30 -18 -12 23 -26 26 -42 46 -35 45 45 -6 57 18 68 140 5 53 14 132 19 176 6 44 13 107 16 140 8 88 10 92 38 66 12 -11 25 -18 29 -15 3 3 3 -19 0 -50 -4 -42 -2 -61 11 -81 20 -31 47 -32 65 -3 l14 22 18 -23 c18 -22 20 -23 44 -7 24 16 27 16 55 -1 29 -16 32 -17 58 0 15 9 26 21 24 27 -3 16 18 12 24 -5 8 -19 43 -19 50 0 7 17 34 20 34 4 0 -18 33 -39 46 -28 7 6 20 -7 37 -39 15 -26 27 -41 27 -33 0 7 6 11 15 7 8 -3 15 -1 15 4 0 5 -9 11 -20 15 -12 4 -26 25 -37 54 -16 47 -17 48 -33 28 -27 -33 -40 -12 -41 66 l-1 72 -13 -41 c-7 -22 -20 -55 -30 -73 -13 -26 -19 -30 -30 -21 -8 6 -17 25 -20 42 l-7 30 -18 -40 c-21 -46 -54 -70 -75 -52 -18 15 -28 76 -15 100 7 13 7 20 0 20 -5 0 -10 -5 -10 -11 0 -6 -10 -33 -21 -60 -35 -81 -65 -57 -55 44 l5 52 -24 -64 c-23 -63 -49 -100 -61 -89 -10 11 -16 106 -6 112 6 3 8 14 5 24 -2 10 5 51 16 92 16 56 18 77 9 87 -16 20 -23 8 -43 -84 -10 -46 -23 -83 -28 -83 -5 0 -6 7 -3 16 14 38 36 149 36 187 0 23 9 60 20 82 l20 40 -5 -47 c-2 -25 -6 -52 -7 -60 -2 -8 5 -12 20 -10 33 5 35 -16 12 -99 -23 -84 -39 -230 -22 -214 18 18 59 148 73 228 7 42 17 77 21 77 12 0 10 -44 -7 -145 -26 -162 -14 -212 26 -101 29 81 50 80 47 -4 -2 -32 0 -62 4 -65 24 -24 61 33 104 162 32 97 62 151 87 159 20 6 37 -10 37 -36 0 -13 -1 -13 -10 0 -26 38 -95 -100 -107 -211 -4 -39 -2 -59 5 -59 9 0 63 123 68 157 1 6 7 28 14 47 17 51 34 46 26 -6 -14 -90 -19 -208 -9 -208 11 0 33 74 33 112 0 13 8 45 17 71 16 45 16 51 0 96 -9 27 -17 60 -17 73 0 13 -7 33 -15 44 -8 10 -15 29 -15 42 0 13 -4 21 -9 17 -5 -3 -12 -1 -16 5 -3 5 1 10 9 10 9 0 16 3 16 8 0 8 125 10 134 1 10 -10 -43 -41 -56 -33 -7 4 -8 3 -4 -5 4 -7 -2 -19 -16 -30 -13 -11 -21 -22 -18 -25 4 -3 31 15 60 40 30 25 67 52 83 60 21 11 27 21 26 47 -1 30 -2 30 -8 7 -10 -35 -58 -41 -64 -8 l-4 23 -2 -22 c-1 -19 -7 -23 -32 -23 -23 0 -30 4 -26 15 4 8 2 17 -3 20 -6 4 -10 -3 -10 -14 0 -17 -6 -21 -31 -21 -19 0 -37 -7 -45 -17 -7 -10 -15 -15 -19 -12 -7 7 -8 96 -1 152 4 35 2 39 -30 54 -19 9 -36 25 -40 35 -3 10 -10 18 -16 18 -6 0 -6 -6 2 -15 18 -21 8 -27 -24 -16 -19 8 -26 18 -27 38 -1 21 -3 23 -6 7 -5 -24 -44 -49 -104 -65 -66 -17 -103 -13 -148 17 -41 26 -136 142 -127 152 3 3 14 -6 25 -19 l20 -24 48 48 c54 53 38 66 -17 13 l-35 -33 -37 30 c-21 17 -38 36 -38 44 0 20 14 16 43 -15 l27 -29 40 38 c38 36 50 59 32 59 -12 0 -62 -54 -62 -67 0 -5 -18 7 -41 28 -24 22 -38 43 -34 49 5 8 17 3 36 -16 16 -15 29 -22 29 -15 0 6 -18 29 -40 51 -38 37 -55 90 -30 90 6 0 10 -8 10 -18 0 -10 11 -29 24 -41 14 -13 30 -36 37 -52 11 -28 13 -29 30 -13 11 10 19 21 19 25 0 5 20 29 45 55 25 26 43 49 39 53 -3 3 -31 -22 -61 -56 l-55 -63 -45 70 c-38 60 -44 74 -38 102 10 44 53 128 66 128 5 0 7 -4 4 -10 -3 -6 1 -7 9 -4 9 3 16 13 16 22 0 23 63 129 115 195 43 55 47 57 91 57 30 0 59 8 81 21 27 17 51 21 121 22 l87 2 3 -45 c1 -25 4 -54 7 -66 6 -27 90 -80 139 -88 32 -5 42 -2 61 18 13 14 20 28 16 32 -3 4 19 3 49 -1 30 -4 88 -10 129 -13 l74 -7 17 -50 c19 -55 34 -88 103 -215 25 -47 52 -107 60 -135 21 -71 42 -118 61 -137 15 -15 13 -19 -20 -51 -34 -32 -35 -34 -15 -40 12 -3 19 -1 15 5 -4 6 4 8 17 6 13 -1 24 -10 25 -18 0 -8 4 -23 8 -32 5 -10 6 -38 4 -63 -2 -25 -1 -45 1 -45 12 0 39 44 34 56 -3 8 0 14 6 14 6 0 11 -7 11 -16 0 -8 4 -13 8 -10 14 9 1 74 -19 92 -18 16 -19 16 -20 -17 0 -28 -2 -31 -9 -14 -5 11 -9 30 -9 43 -1 32 26 28 60 -10 16 -18 29 -27 29 -21 0 7 -12 27 -28 44 -24 27 -30 29 -55 20 -35 -14 -57 -14 -57 -1 0 5 7 7 15 3 10 -3 15 -1 13 7 -2 7 3 15 10 17 6 3 12 0 12 -6 0 -18 18 -13 22 6 2 14 10 11 41 -16 40 -36 51 -32 15 6 -20 22 -21 23 -2 23 44 -1 48 -12 28 -95 -14 -58 -24 -81 -42 -93 -24 -15 -57 -74 -91 -160 -15 -38 -17 -51 -7 -64 11 -14 14 -13 33 15 12 18 27 55 34 82 18 75 18 75 28 75 6 0 10 -72 10 -177 0 -270 25 -490 55 -480 39 13 70 243 71 519 0 98 3 178 6 178 4 0 12 -30 19 -67 6 -37 16 -73 22 -80 5 -7 8 -18 5 -25 -4 -8 -6 -7 -6 5 -1 9 -5 17 -11 17 -6 0 -10 -31 -10 -72 0 -169 -51 -473 -85 -507 -45 -45 -84 115 -86 359 l-1 125 -23 -159 c-39 -261 -87 -421 -126 -421 -8 0 -22 21 -32 50 l-18 50 5 -48 c7 -61 11 -67 43 -67 27 0 47 18 64 60 16 37 59 207 59 231 0 43 18 6 24 -51 4 -33 14 -77 23 -97 9 -21 16 -41 15 -44 0 -3 9 -11 21 -16 31 -14 51 1 67 52 7 22 16 50 21 63 5 13 9 34 9 48 0 14 4 22 10 19 6 -3 10 -23 10 -43 0 -54 20 -87 53 -87 20 1 29 -6 38 -27 15 -37 42 -36 78 4 22 25 32 30 42 21 20 -16 43 3 58 50 10 28 16 35 25 28 9 -7 16 -7 25 2 25 24 2 -50 -40 -130 -37 -69 -134 -211 -164 -238 -6 -5 -24 -28 -39 -50 -20 -28 -8 -19 39 30 130 135 244 328 246 414 0 25 4 69 9 96 4 28 7 51 5 53 -2 3 -47 -112 -61 -157 -10 -31 -16 1 -9 48 5 38 11 51 23 51 14 0 14 2 3 9 -10 7 -12 21 -8 52 7 43 6 43 -8 18 -8 -15 -28 -74 -44 -133 -40 -141 -53 -162 -45 -71 3 39 8 78 11 89 3 12 1 16 -6 12 -14 -9 -14 -4 -1 28 28 74 38 212 19 248 -14 26 -51 22 -81 -9 -31 -35 -45 -71 -58 -155 -10 -67 -25 -118 -34 -118 -3 0 -3 6 0 13 2 7 6 28 8 47 2 19 7 52 11 73 6 29 4 42 -10 57 -25 27 -43 15 -51 -35 -5 -34 -9 -41 -18 -32 -9 8 -10 24 -5 52 5 22 8 67 9 99 0 41 5 65 17 78 15 17 15 22 0 72 -9 29 -17 61 -17 72 0 10 -9 30 -20 44 -15 21 -21 23 -32 12 -10 -10 -13 -63 -14 -215 -1 -111 -4 -215 -7 -232 -4 -16 -9 -58 -13 -92 -3 -35 -11 -82 -19 -105 -12 -41 -13 -42 -16 -13 -2 29 -5 44 -9 55 -11 31 -21 225 -20 398 1 103 -2 148 -12 159 -10 12 -9 17 6 28 16 12 30 51 56 154 7 29 5 37 -16 58 -16 16 -31 22 -42 18 -9 -4 -32 -9 -50 -12 -49 -8 -66 16 -108 147 -8 25 -43 103 -78 175 -36 72 -70 150 -78 174 -21 70 -55 83 -246 95 -46 3 -55 1 -75 -23 -29 -34 -77 -31 -129 11 -34 27 -38 34 -38 77 0 38 -5 52 -25 71 -22 21 -31 22 -102 18 -49 -4 -95 -13 -123 -27 -25 -11 -61 -21 -81 -21 -57 0 -133 -82 -197 -215 -8 -16 -30 -44 -48 -62 -45 -44 -77 -117 -76 -178 2 -201 3 -225 16 -238 8 -7 23 -31 34 -54 12 -22 45 -66 75 -97 42 -45 51 -59 40 -68 -21 -17 -53 -136 -68 -253 -20 -152 -31 -206 -45 -215 -7 -4 -15 -22 -19 -40 -3 -19 -12 -35 -19 -38 -21 -7 -6 55 22 88 14 17 26 38 26 46 0 24 -15 15 -27 -16 -8 -20 -18 -30 -32 -30 -20 0 -21 -5 -21 -106 0 -91 2 -105 14 -95 17 14 56 124 56 157 0 27 22 44 29 23 4 -12 14 45 36 206 14 98 45 229 61 253 16 24 17 25 30 7 8 -11 14 -43 14 -74 0 -57 -45 -241 -80 -332 -25 -61 -25 -63 0 -56 32 8 24 -19 -9 -33 -19 -8 -32 -21 -35 -38 -6 -28 -40 -313 -51 -420 -7 -71 -13 -92 -26 -92 -12 0 1 133 14 141 5 4 7 12 3 18 -6 9 24 263 40 344 10 49 -14 29 -30 -25 -17 -59 -50 -118 -66 -118 -16 0 -22 44 -18 149 3 92 1 100 -16 105 -25 6 -36 -1 -36 -22 0 -30 -71 -230 -94 -264 -29 -44 -60 -48 -79 -11 -19 38 -30 110 -17 118 6 4 10 -9 10 -31 0 -20 9 -52 21 -70 23 -38 34 -44 26 -14 -3 11 -1 23 4 26 5 3 9 0 9 -5 0 -6 5 -11 11 -11 6 0 8 9 4 20 -5 14 -2 20 10 20 9 0 14 4 11 8 -3 5 10 49 28 98 19 49 37 103 40 121 7 30 5 32 -30 42 -62 17 -78 0 -95 -104 -7 -42 -7 -36 -5 37 2 68 6 92 21 108 23 25 31 25 80 0 47 -24 55 -25 55 -6 0 17 87 331 101 364 18 44 27 12 14 -50 -8 -35 -21 -126 -30 -203 -9 -77 -21 -148 -26 -157 -14 -27 7 -22 36 7 25 24 35 52 14 39 -13 -7 -3 168 12 221 5 16 9 44 9 61 0 17 3 34 7 38 13 13 12 41 -3 64 -14 21 -17 21 -36 8 -14 -10 -28 -40 -39 -83 -10 -37 -31 -115 -47 -173 -32 -116 -21 -107 -113 -94 -35 6 -37 4 -58 -38 -34 -72 -26 -217 12 -202 7 2 14 24 16 47 1 23 8 53 14 67 11 22 20 26 57 21 13 -1 13 -46 0 -69 -5 -9 -19 -44 -30 -77 -34 -98 -80 -135 -80 -66 0 33 -20 54 -43 46 -17 -7 -35 35 -67 160 -49 192 -51 414 -5 604 22 91 61 208 84 251 90 169 126 222 230 335 50 54 176 165 187 165 2 0 14 9 26 20 12 10 24 17 29 15 4 -3 13 1 21 8 25 24 63 44 96 52 18 3 30 10 27 15 -5 9 41 27 91 36 15 3 36 10 47 16 34 18 80 28 157 34 41 3 87 10 102 15 30 12 164 5 278 -16 19 -3 53 -8 75 -11 22 -3 42 -10 43 -15 2 -5 8 -6 13 -3 6 3 15 1 22 -4 7 -5 26 -12 42 -16 17 -4 56 -21 88 -37 32 -16 64 -29 72 -29 8 0 15 -4 15 -10 0 -5 7 -10 15 -10 8 0 15 -4 15 -10 0 -5 7 -10 15 -10 8 0 15 -4 15 -10 0 -5 9 -10 20 -10 11 0 25 -9 32 -20 7 -11 18 -20 25 -20 7 0 13 -4 13 -10 0 -5 7 -10 15 -10 8 0 22 -11 31 -25 9 -14 20 -23 24 -20 5 3 12 -4 15 -16 4 -11 9 -18 12 -15 6 5 63 -54 63 -66 0 -3 9 -10 20 -13 11 -3 20 -12 20 -19 0 -7 10 -21 21 -32 33 -30 74 -94 128 -199 98 -190 141 -363 143 -574 2 -160 -10 -249 -33 -262 -17 -9 -21 -6 -30 20 -12 34 -45 43 -55 16 -4 -10 -13 -13 -26 -9 -13 4 -18 2 -14 -4 3 -6 0 -55 -8 -108 -14 -93 -14 -140 -1 -78 19 85 48 154 63 154 15 0 15 2 2 10 -13 8 -13 12 4 27 18 18 18 16 12 -62 l-6 -80 19 41 c18 39 37 61 47 52 2 -3 -3 -39 -11 -82 -21 -108 -18 -136 5 -47 70 266 75 481 16 715 -119 467 -491 834 -940 927 -108 23 -304 32 -400 18z m754 -1050 c0 -10 -4 -19 -10 -19 -5 0 -10 12 -10 26 0 14 4 23 10 19 6 -3 10 -15 10 -26z m-33 -56 c-3 -10 -5 -4 -5 12 0 17 2 24 5 18 2 -7 2 -21 0 -30z m-942 7 c3 -5 22 -10 41 -10 19 0 34 -4 34 -10 0 -5 9 -10 21 -10 19 0 20 -4 12 -47 -12 -75 -7 -103 31 -180 42 -84 45 -103 15 -96 -22 6 -79 -40 -79 -64 0 -8 -4 -11 -10 -8 -5 3 -10 15 -10 26 0 10 -9 28 -21 40 l-21 21 -29 -28 c-16 -15 -29 -33 -29 -38 0 -6 -6 -22 -13 -36 -7 -14 -19 -44 -27 -68 -21 -66 -26 -58 -16 27 5 43 6 86 3 95 -9 24 -46 20 -57 -6 l-9 -23 0 22 c-1 12 -9 26 -18 31 -13 8 -16 21 -15 55 2 25 -2 48 -8 52 -8 5 -9 24 -4 59 7 53 7 119 -1 147 -4 12 3 16 33 17 21 1 65 10 98 21 73 23 71 23 79 11z m1385 -344 c0 -22 -5 -48 -11 -56 -7 -11 -8 -1 -4 35 l6 50 -30 -32 c-29 -31 -51 -86 -51 -128 0 -11 11 -42 25 -69 14 -27 25 -59 25 -71 0 -68 -69 -178 -90 -145 -13 21 -12 41 6 70 14 25 14 24 8 -12 -9 -57 11 -47 35 17 26 70 26 84 -1 139 l-22 45 -17 -68 c-19 -76 -54 -151 -69 -151 -6 0 -14 10 -18 23 -9 23 -8 127 1 164 3 11 8 43 12 70 10 71 15 87 27 75 6 -6 4 -41 -6 -101 -18 -103 -21 -205 -6 -196 13 8 58 153 70 229 12 75 30 122 60 154 29 31 50 14 50 -42z m-1356 -34 c2 -4 5 -35 6 -67 2 -58 -25 -160 -50 -190 -5 -6 -7 -14 -4 -17 3 -3 1 -9 -4 -12 -13 -8 -8 72 8 142 8 34 16 52 24 49 8 -3 12 7 12 29 0 19 -3 34 -7 34 -9 0 -48 -91 -55 -129 -4 -20 -11 -28 -20 -24 -18 7 -18 42 0 49 8 3 12 12 10 19 -8 19 45 125 61 125 8 0 16 -4 19 -8z m1334 -34 c12 -22 11 -33 -4 -100 -7 -35 -22 -36 -30 -3 -3 14 -11 22 -17 18 -6 -4 -8 0 -4 9 3 9 11 34 18 57 14 47 21 50 37 19z m-198 -85 c0 -30 -10 -53 -23 -53 -8 0 -8 3 0 11 5 5 8 29 6 52 -3 31 -1 38 6 27 6 -8 11 -25 11 -37z m-1333 15 c-3 -8 -6 -5 -6 6 -1 11 2 17 5 13 3 -3 4 -12 1 -19z m-345 -61 c-6 -20 -6 -40 -1 -48 5 -8 9 -36 9 -62 0 -71 13 -90 57 -82 l36 6 -7 -58 c-6 -57 -18 -150 -32 -248 -3 -27 -8 -51 -9 -53 -5 -6 -75 72 -120 133 -17 22 -36 46 -42 53 -7 7 -13 20 -13 28 0 8 -4 14 -9 14 -5 0 -11 9 -14 20 -3 13 3 24 20 35 22 15 37 41 68 120 5 11 9 22 9 25 5 24 51 158 54 156 2 -2 -1 -20 -6 -39z m1810 -81 c-3 -27 -8 -34 -23 -33 -18 1 -28 17 -11 17 4 0 9 12 10 26 1 14 5 30 8 36 11 18 20 -9 16 -46z"/> <path d="M1760 2153 c-24 -30 -26 -75 -5 -93 26 -21 55 14 55 65 0 53 -21 65 -50 28z m25 -49 c-3 -19 -10 -34 -15 -34 -14 0 -12 27 3 68 14 41 22 19 12 -34z"/> <path d="M1212 3357 l-22 -23 39 -38 c42 -41 72 -44 105 -10 22 22 20 41 -9 69 -32 33 -83 34 -113 2z m101 -6 c4 -1 7 -14 7 -30 0 -24 -4 -28 -27 -27 -26 0 -63 29 -63 47 0 8 36 16 60 13 8 -1 18 -3 23 -3z"/> <path d="M2008 3243 c7 -3 16 -2 19 1 4 3 -2 6 -13 5 -11 0 -14 -3 -6 -6z"/> <path d="M1760 3200 c0 -5 5 -10 11 -10 5 0 7 5 4 10 -3 6 -8 10 -11 10 -2 0 -4 -4 -4 -10z"/> <path d="M1982 3110 c0 -40 13 -77 22 -62 4 7 3 18 -2 25 -6 7 -12 23 -15 37 l-4 25 -1 -25z"/> <path d="M2310 3115 c7 -9 15 -13 17 -11 7 7 -7 26 -19 26 -6 0 -6 -6 2 -15z"/> <path d="M2460 3088 c0 -7 -3 -24 -6 -38 -4 -18 -3 -21 4 -11 8 11 12 9 22 -9 6 -12 14 -19 17 -17 2 3 -3 16 -11 30 -9 13 -14 32 -10 41 3 9 1 16 -5 16 -6 0 -11 -6 -11 -12z"/> <path d="M1701 3074 c0 -11 3 -14 6 -6 3 7 2 16 -1 19 -3 4 -6 -2 -5 -13z"/> <path d="M1610 3077 c0 -5 5 -17 10 -28 9 -15 5 -26 -18 -57 -31 -39 -52 -107 -52 -168 0 -54 13 -33 17 26 3 54 44 147 68 157 8 3 15 10 15 17 0 13 -39 65 -40 53z"/> <path d="M2228 3049 c-10 -5 -36 -12 -59 -14 -30 -3 -49 -12 -63 -29 -16 -19 -33 -26 -74 -29 -36 -3 -65 -14 -92 -32 -39 -27 -44 -35 -41 -62 1 -7 -4 -13 -12 -13 -25 0 -68 -55 -65 -83 2 -15 7 -29 11 -33 11 -12 67 -15 67 -4 0 6 9 10 20 10 11 0 20 -7 20 -15 0 -19 9 -19 51 -1 28 12 35 12 47 0 7 -8 23 -14 34 -14 12 0 38 -17 58 -37 21 -21 51 -51 69 -66 21 -19 31 -38 31 -56 0 -37 30 -131 42 -131 5 0 8 -15 8 -32 0 -18 2 -71 5 -118 l6 -85 -43 -27 c-60 -38 -156 -127 -138 -127 8 -1 30 13 49 29 18 16 37 27 42 24 5 -3 6 2 3 10 -3 9 -2 16 3 16 6 0 22 11 37 25 15 14 34 25 42 25 7 0 14 5 14 10 0 6 7 10 16 10 12 0 14 5 9 18 -14 32 -35 165 -29 186 2 12 -4 39 -16 61 -29 56 -26 113 10 188 17 35 30 70 30 77 0 7 7 22 17 32 9 10 11 18 5 18 -6 0 -14 -5 -17 -10 -5 -8 -11 -7 -21 1 -12 10 -11 14 6 26 19 13 23 13 40 -2 15 -13 31 -16 65 -12 40 4 45 2 39 -12 -3 -9 -10 -29 -14 -46 -8 -37 -36 -91 -50 -100 -6 -4 -20 -28 -32 -53 -12 -26 -23 -50 -25 -54 -2 -5 -2 -8 0 -8 3 0 16 19 30 43 14 23 39 55 56 71 17 17 31 36 31 43 0 7 19 34 43 60 41 45 35 51 -10 10 -13 -11 -26 -18 -29 -15 -9 10 16 48 31 48 8 0 15 5 15 10 0 6 12 10 26 10 19 0 25 -4 20 -15 -3 -9 0 -15 9 -15 8 0 15 5 15 10 0 6 5 10 11 10 5 0 7 -4 4 -10 -8 -13 8 -13 40 2 15 7 25 19 25 32 0 22 -20 60 -20 39 0 -7 -7 -10 -15 -7 -17 7 -20 -7 -4 -23 7 -7 7 -13 1 -17 -6 -3 -13 -2 -17 3 -3 6 -11 8 -18 5 -8 -3 -24 -1 -38 4 -16 7 -30 5 -45 -4 -18 -12 -25 -12 -53 2 -22 11 -44 14 -67 9 -33 -6 -35 -5 -25 14 6 11 23 22 38 24 27 4 27 4 -3 6 -18 0 -37 -6 -45 -15 -20 -25 -68 -46 -90 -39 -10 4 -17 10 -14 14 2 5 -7 7 -20 5 -14 -1 -25 2 -25 7 0 6 -5 7 -11 4 -13 -8 19 -34 42 -35 23 0 40 -23 30 -39 -7 -11 -13 -9 -30 8 -11 11 -28 21 -37 21 -8 0 -13 4 -10 9 3 5 -1 11 -9 15 -8 3 -15 2 -15 -2 0 -11 -64 -9 -72 3 -5 6 -12 5 -20 -3 -6 -6 -20 -12 -29 -12 -10 0 -25 -7 -34 -17 -14 -13 -18 -14 -25 -3 -7 11 -11 11 -24 1 -13 -11 -17 -10 -22 4 -5 11 4 26 27 46 22 20 27 28 15 24 -11 -3 -23 0 -28 7 -5 9 -7 7 -6 -7 2 -11 -1 -21 -7 -22 -5 -1 -9 5 -7 14 2 8 -1 12 -7 8 -16 -9 -13 7 4 32 18 26 73 55 80 43 3 -5 12 -7 20 -4 8 4 13 10 10 14 -2 4 9 6 25 4 16 -2 35 3 43 11 8 8 18 11 21 7 4 -3 4 1 1 9 -9 23 18 40 72 45 26 2 60 6 75 9 21 3 26 1 21 -10 -4 -12 4 -15 34 -15 21 0 43 -4 49 -9 5 -5 20 -11 34 -13 14 -2 24 -9 22 -16 -2 -9 4 -11 18 -7 13 4 29 -1 46 -14 15 -12 34 -21 44 -21 9 0 34 -11 54 -25 37 -25 49 -21 19 8 -10 9 -34 32 -54 50 -26 25 -48 35 -84 40 -27 4 -56 14 -66 23 -40 36 -135 54 -171 33z m-325 -238 c5 -21 -9 -41 -30 -41 -17 0 -17 20 0 21 10 0 10 2 0 6 -20 7 -15 33 6 33 10 0 21 -9 24 -19z m177 -52 c0 -25 -15 -24 -48 2 -25 21 -26 22 -5 16 13 -3 26 -1 29 4 8 14 24 0 24 -22z m135 -4 c5 -9 19 -32 30 -49 17 -25 19 -37 12 -63 l-10 -32 -32 32 c-18 18 -50 46 -70 62 -39 32 -59 61 -51 73 9 15 109 -4 121 -23z m80 -4 c6 -20 -3 -51 -15 -51 -16 0 -31 30 -25 50 8 25 32 26 40 1z"/> <path d="M2181 2734 c0 -11 3 -14 6 -6 3 7 2 16 -1 19 -3 4 -6 -2 -5 -13z"/> <path d="M2015 3029 c-4 -6 -5 -12 -2 -15 2 -3 7 2 10 11 7 17 1 20 -8 4z"/> <path d="M1641 2965 c-31 -36 -39 -55 -22 -55 5 0 12 9 16 20 3 10 20 31 36 45 19 15 25 25 16 25 -8 0 -29 -16 -46 -35z"/> <path d="M2135 2980 c3 -5 15 -10 26 -10 36 0 15 -24 -37 -42 -27 -9 -42 -18 -34 -19 30 -3 56 3 80 19 14 9 30 17 35 17 6 1 27 5 47 9 30 6 45 4 72 -12 25 -15 37 -17 45 -9 8 8 11 8 11 -1 0 -7 7 -12 15 -12 25 0 17 17 -13 29 -30 13 -172 31 -184 24 -5 -2 -8 1 -8 6 0 6 -14 11 -31 11 -17 0 -28 -4 -24 -10z"/> <path d="M1691 2963 c-11 -10 -28 -35 -36 -56 -19 -45 -2 -40 22 6 22 43 43 58 71 52 15 -4 21 -2 17 5 -10 16 -51 12 -74 -7z"/> <path d="M1542 2940 c0 -14 2 -19 5 -12 2 6 2 18 0 25 -3 6 -5 1 -5 -13z"/> <path d="M2120 2950 c-9 -6 -10 -10 -3 -10 6 0 15 5 18 10 8 12 4 12 -15 0z"/> <path d="M1497 2888 c-9 -29 -13 -56 -8 -61 4 -4 13 18 20 49 6 32 10 59 8 60 -2 2 -11 -20 -20 -48z"/> <path d="M1697 2912 c-15 -15 -27 -33 -27 -40 0 -7 -5 -12 -12 -12 -6 0 -26 -18 -45 -40 -19 -22 -40 -40 -48 -40 -12 0 -29 -40 -20 -49 6 -5 135 125 135 137 0 14 43 49 75 60 l30 10 -31 1 c-21 1 -39 -8 -57 -27z"/> <path d="M2221 2920 c-13 -11 -18 -20 -13 -20 6 0 14 5 18 11 6 11 52 8 89 -5 17 -7 17 -5 -4 13 -29 26 -59 26 -90 1z"/> <path d="M2440 2921 c0 -5 7 -12 16 -15 27 -10 36 -7 20 9 -16 17 -36 20 -36 6z"/> <path d="M1588 2900 c-12 -39 -10 -86 3 -73 5 5 9 30 7 54 -3 37 -4 40 -10 19z"/> <path d="M1724 2895 c-23 -18 -22 -18 41 0 48 13 49 14 14 14 -19 1 -44 -6 -55 -14z"/> <path d="M2015 2884 l-30 -24 26 0 c30 0 68 34 47 43 -8 2 -27 -6 -43 -19z"/> <path d="M1520 2845 c-11 -48 -11 -58 1 -70 12 -12 14 -4 16 56 1 38 1 69 -1 69 -1 0 -9 -25 -16 -55z"/> <path d="M1815 2890 c-3 -6 1 -7 9 -4 18 7 21 14 7 14 -6 0 -13 -4 -16 -10z"/> <path d="M1960 2890 c19 -13 30 -13 30 0 0 6 -10 10 -22 10 -19 0 -20 -2 -8 -10z"/> <path d="M2405 2890 c3 -5 15 -10 26 -10 11 0 17 5 14 10 -3 6 -15 10 -26 10 -11 0 -17 -4 -14 -10z"/> <path d="M2225 2880 c-4 -6 -4 -14 -1 -17 3 -4 6 -1 6 6 0 10 6 9 24 -3 16 -10 27 -12 31 -5 5 7 11 6 21 -2 9 -7 14 -8 14 -1 0 14 -8 18 -52 26 -23 4 -39 2 -43 -4z"/> <path d="M2558 2883 c7 -3 16 -2 19 1 4 3 -2 6 -13 5 -11 0 -14 -3 -6 -6z"/> <path d="M2096 2871 c-14 -5 -16 -10 -8 -15 7 -4 17 -4 22 -1 6 4 18 1 27 -6 13 -11 15 -11 12 6 -5 22 -24 28 -53 16z"/> <path d="M2490 2860 c0 -13 11 -13 30 0 12 8 11 10 -7 10 -13 0 -23 -4 -23 -10z"/> <path d="M1780 2853 c-27 -10 -145 -101 -157 -122 -11 -18 -10 -19 5 -14 15 6 15 5 4 -10 -12 -14 -8 -22 34 -59 34 -31 59 -68 90 -133 24 -49 43 -85 44 -78 1 27 -74 184 -105 221 -19 22 -35 45 -35 50 0 6 -6 12 -12 15 -10 3 -9 9 3 21 14 15 18 11 55 -44 21 -33 44 -62 51 -64 7 -3 -6 23 -28 56 -21 34 -39 68 -39 77 0 18 5 13 62 -65 38 -52 47 -60 63 -52 26 15 55 41 55 50 0 10 -41 -12 -55 -30 -8 -9 -21 2 -55 49 -25 34 -45 65 -44 68 1 3 25 21 55 38 48 29 52 42 9 26z"/> <path d="M2460 2853 c1 -14 30 -48 30 -34 0 7 -7 19 -15 27 -8 9 -15 12 -15 7z"/> <path d="M2555 2849 c-9 -14 -2 -20 14 -10 8 6 9 11 3 15 -6 3 -14 1 -17 -5z"/> <path d="M1775 2790 c-3 -5 -1 -10 4 -10 6 0 11 5 11 10 0 6 -2 10 -4 10 -3 0 -8 -4 -11 -10z"/> <path d="M2669 2741 c7 -11 9 -21 6 -21 -3 0 0 -10 6 -22 7 -13 13 -33 15 -45 2 -20 0 -21 -18 -12 -16 9 -33 6 -79 -12 -33 -13 -59 -28 -59 -32 0 -5 8 -7 18 -4 111 37 119 35 127 -26 5 -42 -6 -47 -38 -19 -11 9 -17 12 -14 5 4 -6 3 -14 -3 -18 -5 -3 -10 -1 -10 4 0 19 -22 12 -27 -8 -3 -11 -20 -27 -39 -36 -40 -19 -41 -20 -14 -22 11 -1 20 2 20 8 0 5 8 9 19 9 10 0 24 7 31 15 14 17 46 20 55 5 4 -6 -5 -23 -19 -37 -23 -23 -30 -25 -51 -15 -16 8 -26 8 -31 1 -3 -6 3 -13 15 -16 15 -4 25 -20 35 -52 12 -38 15 -43 22 -26 4 11 12 24 18 28 8 6 7 10 -1 13 -16 7 -5 34 13 34 8 0 14 5 14 10 0 6 -5 10 -12 10 -6 0 -4 8 6 19 18 20 25 43 33 114 6 49 -19 151 -39 163 -6 4 -5 -3 1 -15z"/> <path d="M1787 2725 c10 -13 22 -25 26 -25 4 0 0 11 -10 25 -10 13 -22 25 -26 25 -4 0 0 -11 10 -25z"/> <path d="M1940 2696 c0 -2 8 -10 18 -17 15 -13 16 -12 3 4 -13 16 -21 21 -21 13z"/> <path d="M1630 2640 c0 -5 5 -10 11 -10 5 0 7 5 4 10 -3 6 -8 10 -11 10 -2 0 -4 -4 -4 -10z"/> <path d="M1801 2613 c-13 -11 -10 -12 19 -6 51 9 73 23 31 20 -19 -1 -41 -8 -50 -14z"/> <path d="M1650 2614 c0 -3 13 -23 29 -43 16 -20 42 -64 56 -96 15 -33 29 -55 32 -49 5 16 -42 120 -73 161 -23 30 -44 43 -44 27z"/> <path d="M1870 2590 c-12 -8 -10 -10 10 -10 45 1 66 -6 113 -33 49 -29 62 -33 52 -17 -25 41 -144 82 -175 60z"/> <path d="M1595 2550 c-21 -22 -35 -43 -31 -47 4 -4 20 8 36 27 28 33 30 33 48 16 11 -9 32 -44 46 -77 15 -32 31 -59 36 -59 13 0 -33 102 -66 145 -14 19 -27 35 -28 35 -1 0 -19 -18 -41 -40z"/> <path d="M1820 2565 c7 -8 19 -15 26 -15 8 0 31 -10 52 -23 45 -28 68 -37 105 -42 71 -10 -35 53 -138 81 -62 17 -60 17 -45 -1z"/> <path d="M2114 2566 c-3 -9 -10 -16 -16 -16 -12 0 -56 -50 -63 -73 -4 -9 -11 -15 -16 -12 -5 4 -9 2 -9 -3 0 -6 7 -12 15 -16 8 -3 15 -15 15 -28 0 -16 3 -19 11 -11 8 8 8 17 -1 33 -16 30 12 74 42 65 17 -6 19 -4 14 13 -5 15 -1 22 14 27 22 7 26 20 10 30 -6 3 -13 -1 -16 -9z"/> <path d="M1780 2546 c0 -16 21 -68 31 -76 3 -3 9 -12 12 -20 3 -8 6 6 6 33 1 27 -3 47 -10 47 -6 0 -8 -9 -4 -21 5 -15 4 -19 -4 -15 -6 4 -11 18 -11 31 0 13 -4 27 -10 30 -5 3 -10 -1 -10 -9z"/> <path d="M2352 2480 c-33 -66 -39 -90 -22 -90 6 0 10 6 10 13 0 7 11 37 26 66 14 29 23 58 21 64 -2 6 -18 -18 -35 -53z"/> <path d="M2170 2520 c0 -8 5 -22 10 -30 9 -13 10 -13 10 0 0 8 -5 22 -10 30 -9 13 -10 13 -10 0z"/> <path d="M1870 2505 c-10 -12 -10 -15 4 -15 9 0 16 7 16 15 0 8 -2 15 -4 15 -2 0 -9 -7 -16 -15z"/> <path d="M2147 2496 c-4 -10 -5 -21 -2 -24 9 -9 17 6 13 25 -3 17 -4 17 -11 -1z"/> <path d="M2200 2492 c0 -14 6 -22 16 -22 14 0 15 3 3 18 -7 9 -15 19 -16 21 -2 2 -3 -5 -3 -17z"/> <path d="M1951 2460 c22 -29 49 -47 49 -32 0 10 -53 62 -63 62 -4 0 2 -13 14 -30z"/> <path d="M1630 2441 c24 -22 46 -38 49 -36 7 8 -32 46 -64 61 -26 13 -24 9 15 -25z"/> <path d="M1901 2464 c0 -11 3 -14 6 -6 3 7 2 16 -1 19 -3 4 -6 -2 -5 -13z"/> <path d="M2110 2461 c-12 -24 -13 -31 -1 -31 5 0 11 11 13 25 6 30 2 32 -12 6z"/> <path d="M2715 2468 c-7 -20 -2 -39 29 -99 23 -44 33 -55 47 -52 11 3 19 10 19 15 0 5 -5 6 -10 3 -7 -5 -9 7 -6 34 3 24 0 43 -6 47 -7 5 -9 2 -5 -8 4 -11 -1 -18 -14 -21 -10 -3 -19 -3 -19 0 0 8 23 48 31 53 13 9 -4 27 -34 34 -18 4 -29 2 -32 -6z m45 -20 c0 -13 -19 -47 -21 -38 -6 33 -4 50 8 50 7 0 13 -6 13 -12z m30 -82 c0 -2 -7 -7 -16 -10 -8 -3 -12 -2 -9 4 6 10 25 14 25 6z"/> <path d="M3730 2459 c0 -5 5 -7 10 -4 6 3 10 8 10 11 0 2 -4 4 -10 4 -5 0 -10 -5 -10 -11z"/> <path d="M2150 2450 c-8 -5 -12 -12 -9 -15 4 -3 12 1 19 10 14 17 11 19 -10 5z"/> <path d="M2191 2448 c-1 -10 -5 -18 -11 -18 -13 0 -13 -61 1 -80 7 -11 8 -5 3 23 -4 23 -2 43 6 52 6 8 10 20 7 27 -4 8 -6 7 -6 -4z"/> <path d="M2881 2434 c0 -11 3 -14 6 -6 3 7 2 16 -1 19 -3 4 -6 -2 -5 -13z"/> <path d="M2126 2404 c-3 -9 -6 -23 -6 -32 0 -21 15 -5 25 26 7 25 -9 31 -19 6z"/> <path d="M2213 2400 c5 -31 17 -36 17 -7 0 15 -4 27 -10 27 -5 0 -9 -9 -7 -20z"/> <path d="M2092 2385 c0 -16 2 -22 5 -12 2 9 2 23 0 30 -3 6 -5 -1 -5 -18z"/> <path d="M2245 2370 c-3 -5 -1 -10 4 -10 6 0 11 5 11 10 0 6 -2 10 -4 10 -3 0 -8 -4 -11 -10z"/> <path d="M2324 2343 c3 -21 6 -48 6 -60 0 -12 9 -41 20 -65 19 -41 19 -42 17 -11 -1 17 -5 29 -9 26 -5 -2 -9 6 -10 19 0 13 -2 28 -3 33 -2 6 -3 29 -4 53 0 23 -6 42 -12 42 -7 0 -9 -13 -5 -37z"/> <path d="M2153 2348 c4 -12 1 -18 -8 -18 -8 0 -15 -5 -15 -12 0 -6 -7 -4 -18 5 -10 10 -25 17 -33 17 -24 -1 -52 -28 -46 -45 9 -21 28 -19 34 5 7 26 17 25 36 -2 l16 -23 19 23 18 24 16 -24 16 -23 19 24 20 25 12 -23 c12 -22 13 -22 26 -5 12 17 10 20 -17 31 -27 12 -32 11 -44 -4 -7 -10 -14 -16 -16 -13 -3 3 -13 16 -23 30 -9 14 -15 17 -12 8z"/> <path d="M1627 2298 c-17 -37 -61 -243 -71 -333 l-6 -50 20 55 c31 82 81 301 77 335 l-3 30 -17 -37z"/> <path d="M2706 2304 c-22 -21 -31 -64 -19 -83 15 -23 61 -24 73 -1 26 48 3 65 -37 28 l-23 -21 0 26 c0 27 25 48 48 40 18 -7 15 14 -4 21 -21 8 -20 8 -38 -10z"/> <path d="M2634 2275 c4 -38 16 -43 16 -7 0 18 -4 32 -9 32 -5 0 -8 -11 -7 -25z"/> <path d="M2045 2261 c-3 -5 -1 -12 5 -16 5 -3 10 1 10 9 0 18 -6 21 -15 7z"/> <path d="M3745 2260 c3 -5 8 -10 11 -10 2 0 4 5 4 10 0 6 -5 10 -11 10 -5 0 -7 -4 -4 -10z"/> <path d="M2648 2200 c-7 -24 -3 -38 8 -28 3 4 4 17 2 30 l-3 23 -7 -25z"/> <path d="M1400 2084 c-26 -103 -30 -128 -19 -135 24 -15 29 -10 29 29 0 20 7 80 15 132 8 52 13 96 11 97 -2 2 -18 -54 -36 -123z"/> <path d="M2822 2161 c-18 -22 -32 -51 -32 -65 0 -14 -5 -26 -11 -26 -7 0 -9 10 -4 28 l7 27 -31 -29 c-17 -17 -31 -26 -31 -22 0 5 -7 3 -15 -4 -21 -17 -19 -47 6 -87 18 -29 19 -37 8 -44 -10 -6 -11 -11 -3 -19 7 -7 18 4 37 39 23 41 25 50 12 55 -9 3 -15 0 -15 -9 0 -8 -3 -15 -7 -15 -13 1 -43 27 -43 37 0 11 70 34 82 27 11 -7 10 -81 -1 -88 -5 -3 -17 -35 -27 -72 -21 -78 -35 -90 -122 -100 -34 -3 -64 -9 -66 -13 -2 -3 -7 -53 -11 -111 -4 -58 -11 -110 -16 -116 -5 -6 -29 -19 -54 -29 -46 -17 -51 -26 -46 -91 3 -33 -83 -122 -130 -134 -56 -15 -75 -6 -103 53 -35 72 -43 129 -21 150 14 15 15 17 1 17 -9 0 -16 5 -16 11 0 5 5 7 12 3 7 -4 8 -3 4 4 -4 7 -14 12 -21 12 -12 0 -12 -5 -3 -25 6 -14 8 -28 4 -32 -10 -10 -27 12 -37 49 l-8 33 4 -35 c8 -75 77 -240 109 -262 6 -4 30 -8 53 -8 31 0 48 6 63 22 11 12 20 19 20 16 0 -4 18 12 40 34 37 38 60 94 47 115 -9 14 5 28 46 47 57 26 69 53 75 167 5 111 -2 102 92 113 35 4 52 12 76 39 l32 34 -5 -41 c-3 -22 -14 -74 -24 -113 -11 -40 -19 -75 -19 -78 0 -11 -29 -4 -33 8 -3 6 -6 2 -6 -10 -1 -12 2 -29 5 -38 6 -14 8 -14 25 1 36 32 82 239 109 483 6 51 15 102 21 112 15 30 5 22 -29 -20z"/> <path d="M2325 2180 c3 -5 2 -10 -2 -10 -11 0 -11 -53 -1 -60 4 -3 10 -30 14 -60 7 -63 7 -55 5 -98 -1 -32 -2 -33 -23 -18 -12 9 -32 16 -43 16 -16 0 -14 -3 10 -16 16 -8 37 -22 46 -30 26 -23 29 -17 30 54 1 37 4 54 6 37 3 -16 9 -33 14 -36 5 -3 16 -48 25 -99 8 -52 17 -96 19 -99 26 -25 5 122 -30 214 -13 33 -26 76 -29 95 -13 70 -29 120 -38 120 -5 0 -6 -4 -3 -10z m15 -50 c0 -5 -2 -10 -4 -10 -3 0 -8 5 -11 10 -3 6 -1 10 4 10 6 0 11 -4 11 -10z"/> <path d="M2737 2173 c-4 -6 0 -19 8 -29 11 -15 14 -16 15 -4 0 21 -16 44 -23 33z"/> <path d="M3106 2173 c-4 -5 -14 -23 -22 -42 -13 -30 -12 -37 2 -59 16 -24 16 -24 36 -5 20 21 30 74 17 95 -4 7 -10 -5 -14 -28 -10 -57 -14 -66 -26 -59 -6 4 -8 15 -6 24 3 9 10 31 15 49 11 33 11 37 -2 25z"/> <path d="M2370 2156 c0 -8 4 -17 9 -20 5 -4 7 3 4 14 -6 23 -13 26 -13 6z"/> <path d="M2220 2120 c0 -5 5 -10 11 -10 5 0 7 5 4 10 -3 6 -8 10 -11 10 -2 0 -4 -4 -4 -10z"/> <path d="M2256 2116 c4 -10 1 -16 -8 -16 -8 0 -24 -9 -36 -20 -12 -11 -25 -20 -30 -20 -17 0 -49 -35 -49 -52 0 -10 4 -18 7 -18 10 0 31 26 25 32 -2 2 11 10 30 17 20 7 33 17 30 22 -3 5 0 6 8 3 8 -3 17 2 20 10 4 9 12 14 19 12 7 -1 10 -1 6 1 -5 3 -8 11 -8 18 0 8 -4 17 -10 20 -6 3 -7 -1 -4 -9z"/> <path d="M2280 2119 c0 -5 5 -7 10 -4 6 3 10 8 10 11 0 2 -4 4 -10 4 -5 0 -10 -5 -10 -11z"/> <path d="M2714 2108 l-19 -23 23 19 c12 11 22 21 22 23 0 8 -8 2 -26 -19z"/> <path d="M2381 2110 c0 -8 6 -28 14 -45 l14 -30 -6 30 c-7 38 -22 68 -22 45z"/> <path d="M2275 2020 c-3 -5 -2 -10 4 -10 5 0 13 5 16 10 3 6 2 10 -4 10 -5 0 -13 -4 -16 -10z"/> <path d="M2205 1980 c-3 -5 -1 -10 4 -10 6 0 11 5 11 10 0 6 -2 10 -4 10 -3 0 -8 -4 -11 -10z"/> <path d="M2226 1961 c-8 -9 -29 -29 -45 -44 -25 -23 -54 -73 -88 -152 -5 -10 18 17 57 67 11 14 20 33 20 41 0 14 54 67 68 67 4 0 12 8 19 18 14 24 -8 26 -31 3z"/> <path d="M2434 1960 c4 -14 10 -42 13 -62 3 -21 9 -35 13 -33 10 6 -9 97 -22 110 -7 7 -9 2 -4 -15z"/> <path d="M2169 1943 c-13 -17 -13 -17 6 -3 11 8 22 16 24 17 2 2 0 3 -6 3 -6 0 -17 -8 -24 -17z"/> <path d="M2373 1885 c0 -22 2 -30 4 -17 2 12 2 30 0 40 -3 9 -5 -1 -4 -23z"/> <path d="M2710 1866 c0 -17 -41 -33 -104 -40 -27 -3 -52 -9 -55 -14 -3 -5 -15 -11 -26 -14 -11 -3 -28 -9 -37 -13 -15 -6 -16 -2 -12 32 3 29 2 33 -5 18 -5 -11 -10 -31 -10 -44 -1 -22 1 -23 41 -17 23 4 46 13 52 21 7 9 37 18 74 21 63 7 92 22 92 50 0 8 -2 14 -5 14 -3 0 -5 -6 -5 -14z"/> <path d="M2286 1849 c-14 -11 -38 -42 -52 -67 -15 -26 -39 -57 -53 -69 -36 -32 -17 -29 54 8 33 17 48 28 33 25 -23 -5 -26 -3 -21 11 9 26 53 83 64 83 5 0 9 -9 9 -20 0 -11 4 -20 9 -20 15 0 22 18 11 25 -6 4 -8 15 -5 26 8 26 -15 25 -49 -2z"/> <path d="M2351 1844 c0 -11 3 -14 6 -6 3 7 2 16 -1 19 -3 4 -6 -2 -5 -13z"/> <path d="M2371 1824 c0 -11 3 -14 6 -6 3 7 2 16 -1 19 -3 4 -6 -2 -5 -13z"/> <path d="M2370 1776 c0 -13 6 -26 13 -29 10 -4 12 3 9 24 -5 35 -22 39 -22 5z"/> <path d="M2340 1781 c0 -6 -7 -11 -15 -11 -8 0 -15 -5 -15 -12 0 -6 -23 -32 -52 -58 -49 -44 -51 -47 -42 -82 l9 -36 18 35 c9 19 12 31 5 27 -8 -5 -9 -2 -5 10 4 10 7 20 7 22 0 2 6 4 13 5 19 2 100 96 88 104 -6 3 -11 1 -11 -4z m-100 -151 c0 -5 -5 -10 -11 -10 -5 0 -7 5 -4 10 3 6 8 10 11 10 2 0 4 -4 4 -10z"/> <path d="M2500 1739 c0 -5 5 -7 10 -4 6 3 10 8 10 11 0 2 -4 4 -10 4 -5 0 -10 -5 -10 -11z"/> <path d="M2505 1689 c-44 -71 -43 -90 1 -21 29 45 47 82 40 82 -2 0 -20 -27 -41 -61z"/> <path d="M2349 1724 c-18 -21 -19 -54 -2 -54 8 0 11 5 8 10 -9 15 5 51 17 44 7 -4 8 -2 4 4 -9 15 -11 15 -27 -4z"/> <path d="M2456 1713 c-4 -9 -2 -21 4 -27 7 -7 10 -7 10 1 0 6 3 18 6 27 3 9 2 16 -4 16 -5 0 -13 -8 -16 -17z"/> <path d="M2399 1677 c-9 -7 -28 -31 -42 -54 -17 -26 -35 -43 -46 -43 -11 0 -26 -3 -35 -6 -20 -8 -21 13 -1 32 16 16 20 34 8 34 -7 0 -22 -26 -39 -67 -4 -7 9 -11 40 -10 34 2 45 -1 41 -10 -3 -7 -8 -20 -11 -28 -4 -11 0 -15 16 -15 13 0 24 -8 27 -20 6 -23 23 -27 23 -5 0 8 7 15 15 15 17 0 20 -16 5 -25 -5 -3 -10 -11 -10 -18 0 -17 27 14 34 40 7 20 5 21 -23 13 -23 -6 -31 -5 -35 7 -3 8 -10 12 -14 9 -5 -3 -6 8 -4 25 5 32 22 40 22 10 0 -45 60 -36 78 11 11 30 13 31 30 15 10 -9 26 -17 35 -17 22 0 22 36 1 44 -23 9 -24 8 -17 -10 5 -14 3 -15 -15 -5 -18 10 -24 7 -48 -24 -14 -19 -29 -35 -33 -35 -14 0 -33 72 -23 82 7 7 13 -1 17 -26 4 -20 12 -36 17 -36 6 0 7 8 3 18 -15 39 -17 73 -5 87 16 20 10 27 -11 12z"/> <path d="M2140 1656 c0 -18 25 -38 35 -28 5 4 5 2 2 -4 -4 -7 2 -32 14 -55 16 -35 19 -38 14 -14 -3 17 -9 44 -12 60 -3 17 -10 36 -15 43 -14 16 -38 15 -38 -2z"/> <path d="M2440 1653 c0 -13 5 -23 10 -23 13 0 13 11 0 30 -8 12 -10 11 -10 -7z"/> <path d="M2421 1640 c0 -8 4 -22 9 -30 12 -18 12 -2 0 25 -6 13 -9 15 -9 5z"/> <path d="M931 1555 c-16 -14 -34 -25 -40 -25 -6 0 -11 -4 -11 -10 0 -5 -5 -10 -11 -10 -16 0 -59 -48 -59 -64 0 -8 13 -19 28 -25 33 -14 67 -4 96 28 19 21 51 30 44 12 -1 -5 -23 -24 -48 -43 -54 -41 -63 -73 -26 -90 28 -12 51 -4 108 36 15 11 30 17 33 14 3 -3 -7 -14 -21 -24 -90 -65 -100 -83 -63 -115 21 -18 43 -16 67 8 8 7 18 10 24 7 7 -4 8 -2 4 4 -4 7 -1 12 7 12 22 0 77 67 77 93 -1 27 -17 50 -48 66 -13 7 -21 15 -18 18 7 7 -25 63 -36 63 -4 0 -8 6 -8 13 0 16 -27 41 -52 50 -11 4 -29 -3 -47 -18z m63 -10 c17 -13 18 -15 2 -21 -13 -5 -10 -10 16 -23 27 -13 33 -22 33 -48 0 -22 5 -33 14 -33 19 0 61 -40 61 -57 0 -16 -33 -49 -89 -87 -33 -23 -43 -26 -61 -16 -20 11 -20 12 22 42 76 54 88 69 77 89 -14 27 -35 24 -88 -16 -33 -24 -54 -32 -69 -28 -12 3 -22 8 -21 12 0 3 27 25 60 49 61 44 71 64 37 85 -13 8 -28 3 -71 -27 -47 -33 -58 -36 -77 -26 -21 11 -20 12 22 40 24 16 57 41 73 54 35 30 35 30 59 11z"/> <path d="M2205 1500 c-8 -16 -15 -31 -15 -33 0 -5 31 -12 93 -22 l32 -6 -25 15 c-14 8 -37 15 -52 16 -32 0 -36 15 -11 42 9 10 11 18 5 18 -6 0 -18 -13 -27 -30z"/> <path d="M2258 1523 c7 -3 16 -2 19 1 4 3 -2 6 -13 5 -11 0 -14 -3 -6 -6z"/> <path d="M2260 1499 c14 -6 35 -20 47 -31 13 -12 26 -18 30 -15 12 12 -47 57 -75 56 l-27 0 25 -10z"/> <path d="M2347 1444 c-3 -4 -1 -16 4 -27 9 -16 13 -17 20 -6 8 12 11 12 19 -1 5 -8 10 -10 10 -4 0 11 -31 44 -42 44 -2 0 -8 -3 -11 -6z"/> <path d="M2411 1434 c0 -11 3 -14 6 -6 3 7 2 16 -1 19 -3 4 -6 -2 -5 -13z"/> <path d="M2296 1414 c-11 -7 -17 -16 -15 -19 3 -3 14 2 25 9 10 8 17 17 14 19 -3 3 -14 -1 -24 -9z"/> <path d="M2215 1410 c3 -5 12 -10 20 -10 8 0 17 5 20 10 4 6 -5 10 -20 10 -15 0 -24 -4 -20 -10z"/> <path d="M3447 1414 c-16 -16 -6 -63 15 -78 39 -28 49 -21 46 32 -3 42 -6 47 -28 50 -14 2 -29 0 -33 -4z m43 -44 c0 -11 -4 -20 -10 -20 -5 0 -10 2 -10 4 0 2 -3 11 -6 20 -4 11 -1 16 10 16 9 0 16 -8 16 -20z"/> <path d="M2331 1384 c-1 -7 -18 -10 -45 -8 -34 2 -45 -1 -48 -14 -4 -14 2 -17 31 -16 20 0 41 -3 47 -8 6 -5 19 -6 27 -2 18 6 33 42 23 52 -4 3 -10 -5 -13 -18 l-7 -25 -7 25 c-4 14 -7 20 -8 14z"/> <path d="M3340 1340 c-11 -7 -11 -16 0 -54 7 -26 11 -49 8 -51 -3 -3 -18 1 -34 10 -35 18 -56 19 -72 3 -23 -23 -10 -77 19 -82 17 -2 106 -34 136 -49 41 -19 70 33 43 81 -21 38 -50 107 -50 119 0 17 -33 33 -50 23z m54 -88 c37 -86 46 -128 24 -119 -7 3 -50 20 -95 38 -86 33 -88 35 -75 57 7 10 23 7 76 -13 38 -14 70 -24 73 -22 2 2 -10 34 -26 70 -16 36 -27 68 -24 71 8 8 5 13 47 -82z"/> <path d="M3128 1282 c-2 -4 -27 -25 -55 -46 -46 -32 -53 -42 -53 -71 0 -19 7 -41 16 -49 8 -9 12 -16 7 -16 -4 0 -3 -4 3 -8 9 -6 36 -40 115 -144 18 -24 59 -35 59 -16 0 4 5 8 11 8 7 0 32 16 55 36 36 29 44 42 44 68 0 51 -19 60 -62 31 -20 -13 -38 -30 -41 -37 -3 -10 -9 -10 -23 -2 -26 15 -27 27 -4 52 23 25 27 70 6 78 -8 3 -31 -2 -51 -12 -47 -22 -58 -9 -19 24 37 32 47 57 34 82 -10 19 -37 33 -42 22z m32 -32 c0 -11 -18 -33 -44 -52 l-43 -34 25 -32 24 -32 39 31 c39 30 39 31 39 7 0 -14 -11 -30 -29 -43 -32 -21 -31 -26 12 -77 l23 -28 51 45 c49 43 51 44 55 21 4 -19 -6 -31 -49 -65 -29 -22 -58 -42 -63 -44 -5 -1 -45 45 -89 102 -55 73 -77 110 -72 122 6 17 99 97 114 98 4 1 7 -8 7 -19z"/> <path d="M1331 1129 c-12 -13 -21 -26 -21 -30 0 -4 -7 -15 -16 -24 -9 -9 -23 -33 -30 -53 -10 -32 -10 -41 4 -64 21 -36 70 -54 91 -33 14 13 12 15 -14 15 -35 0 -48 8 -63 36 -10 19 -5 31 31 86 34 51 46 63 64 60 22 -3 22 -5 -17 -62 -22 -32 -40 -66 -40 -75 0 -14 45 -43 54 -34 2 2 21 29 42 59 30 43 44 54 61 52 22 -3 20 -7 -27 -78 -40 -59 -56 -74 -75 -74 -14 0 -25 -4 -25 -10 0 -5 3 -10 8 -10 4 0 17 -3 28 -6 17 -4 26 2 45 33 13 21 30 43 39 50 8 7 11 13 6 13 -6 0 -1 7 10 15 10 8 15 15 10 15 -5 0 -3 7 4 15 16 19 4 52 -21 58 -29 8 -44 0 -58 -29 -6 -13 -18 -27 -26 -30 -8 -4 -13 -10 -10 -15 3 -4 -4 -13 -15 -19 -17 -9 -20 -8 -20 10 0 11 4 20 8 20 5 0 19 21 32 46 18 34 21 50 13 62 -15 26 -49 26 -72 1z"/> <path d="M1528 998 c-20 -19 -29 -35 -25 -47 3 -14 -2 -21 -18 -25 -28 -7 -37 -29 -25 -60 15 -41 53 -72 90 -75 73 -5 116 33 100 89 -6 20 -2 29 18 46 26 21 26 22 8 48 -34 53 -105 65 -148 24z m116 -19 c30 -24 33 -34 10 -43 -10 -4 -23 3 -36 19 -20 25 -42 32 -52 16 -3 -4 10 -26 29 -49 39 -45 45 -86 16 -102 -48 -25 -112 -1 -129 50 -12 32 -7 40 20 40 12 0 18 -7 18 -24 0 -32 47 -71 66 -55 15 12 6 36 -21 59 -9 7 -23 26 -30 40 -12 23 -12 30 1 49 20 28 72 28 108 0z"/> <path d="M2845 995 c-21 -8 -47 -24 -57 -37 -19 -25 -24 -73 -8 -83 6 -3 10 -20 10 -36 0 -30 37 -78 62 -80 7 -1 20 -2 28 -3 21 -2 84 29 113 57 l25 23 -33 70 c-30 65 -64 105 -90 104 -5 -1 -28 -7 -50 -15z m107 -75 c15 -30 32 -60 37 -66 7 -8 4 -17 -9 -29 -10 -9 -20 -12 -24 -6 -3 5 -19 -3 -34 -19 -34 -34 -74 -31 -100 7 -15 24 -15 28 4 62 12 24 30 40 52 47 29 9 31 12 19 28 -21 29 -58 17 -71 -23 -14 -42 -36 -53 -36 -18 0 38 54 79 99 75 33 -3 38 -8 63 -58z"/> <path d="M2910 890 c0 -5 -13 -10 -29 -10 -16 0 -35 -7 -42 -16 -11 -14 -10 -19 10 -35 29 -24 53 -24 75 0 12 13 15 27 10 45 -6 25 -24 37 -24 16z m-15 -40 c3 -5 1 -10 -4 -10 -6 0 -11 5 -11 10 0 6 2 10 4 10 3 0 8 -4 11 -10z"/> <path d="M1937 956 c-15 -19 -32 -46 -38 -60 -7 -14 -16 -26 -21 -26 -4 0 -8 -5 -8 -12 0 -6 -6 -19 -14 -27 -8 -9 -26 -37 -40 -63 -26 -47 -26 -72 -1 -82 16 -6 68 32 60 44 -7 11 17 28 35 25 45 -8 70 -26 70 -48 0 -13 5 -28 12 -35 7 -7 8 -12 3 -12 -6 0 -4 -4 4 -9 8 -5 26 -5 42 1 22 8 29 16 29 37 0 43 -38 240 -52 269 -19 40 -50 39 -81 -2z m88 -126 c15 -77 27 -143 26 -147 -1 -4 -11 -11 -21 -15 -17 -6 -20 -1 -26 43 -6 43 -10 50 -33 55 -14 3 -40 10 -58 14 -31 8 -33 6 -59 -37 -16 -29 -29 -42 -36 -35 -11 11 148 262 166 262 8 0 23 -54 41 -140z"/> <path d="M1936 872 c-15 -24 -25 -46 -23 -48 2 -3 18 -9 36 -14 29 -8 31 -7 30 18 -1 15 -4 41 -8 57 l-7 30 -28 -43z"/> <path d="M2447 962 c-22 -24 -22 -68 1 -81 14 -9 15 -12 3 -20 -9 -6 -22 -6 -32 0 -21 11 -118 8 -125 -3 -8 -13 -62 -9 -70 5 -4 6 -4 9 1 5 10 -9 45 35 45 56 0 25 -44 48 -76 40 -48 -12 -77 -52 -74 -99 1 -3 -7 -19 -17 -35 -13 -23 -15 -32 -5 -42 7 -7 12 -37 12 -67 0 -63 6 -77 35 -83 28 -5 55 32 55 77 0 25 8 43 26 62 14 14 27 23 29 21 2 -2 7 -35 10 -73 7 -84 20 -101 58 -84 15 7 27 17 28 23 0 6 1 37 1 68 0 55 1 57 20 47 16 -9 24 -7 43 11 27 25 32 20 41 -47 3 -28 14 -63 24 -77 l17 -26 27 21 c25 20 26 24 20 83 -4 33 -8 68 -10 76 -1 8 -3 20 -3 27 -1 6 -7 18 -14 25 -7 7 -12 33 -12 58 0 38 -3 45 -21 48 -11 2 -28 -6 -37 -16z m43 -27 c0 -14 -8 -29 -20 -35 -17 -9 -20 -8 -20 13 0 23 16 47 32 47 4 0 8 -11 8 -25z m-244 -6 c3 -6 -1 -18 -10 -27 -16 -16 -18 -16 -27 1 -15 26 -29 11 -29 -33 0 -39 0 -39 43 -42 l42 -3 -42 -14 c-38 -13 -43 -18 -43 -45 0 -62 -12 -104 -30 -109 -17 -4 -18 2 -13 69 6 73 6 74 -18 75 l-24 0 23 16 c15 10 22 26 22 46 0 39 35 77 71 77 15 0 31 -5 35 -11z m269 -150 c12 -76 12 -85 -2 -96 -9 -7 -18 -11 -20 -9 -2 2 -10 41 -17 87 -12 75 -12 85 3 96 9 6 17 10 19 8 2 -2 9 -41 17 -86z m-186 -45 c2 -59 -1 -73 -15 -78 -9 -4 -18 -5 -19 -4 -1 2 -5 42 -8 90 -5 76 -4 89 11 97 22 12 28 -8 31 -105z m87 105 c3 -6 -1 -18 -10 -27 -14 -14 -18 -15 -25 -3 -5 8 -18 12 -30 8 -25 -6 -28 8 -3 22 23 14 59 14 68 0z"/> <path d="M2606 909 c-15 -12 -32 -41 -41 -71 -13 -45 -13 -53 1 -81 34 -64 103 -93 149 -63 29 19 58 70 53 94 -2 12 -10 4 -23 -23 -25 -49 -56 -66 -99 -54 -52 15 -76 64 -60 128 11 46 66 77 108 61 29 -11 34 -31 12 -49 -11 -9 -16 -9 -23 2 -13 22 -39 27 -62 11 -45 -32 -7 -114 53 -114 31 0 51 14 71 49 5 9 -5 7 -27 -7 -45 -28 -88 -17 -88 21 0 34 9 38 41 22 35 -18 34 -18 53 1 20 20 21 58 1 74 -26 22 -91 21 -119 -1z"/> <path d="M1917 3800 c-3 -8 -8 -34 -10 -58 l-5 -43 36 7 c47 8 48 10 30 31 -9 10 -22 32 -31 48 -11 21 -17 26 -20 15z"/> <path d="M2737 3603 c-13 -12 -7 -51 9 -67 26 -26 61 -20 79 14 13 25 13 29 1 24 -8 -3 -24 4 -35 15 -21 21 -42 27 -54 14z m47 -55 c-3 -5 -12 -1 -20 9 -20 26 -17 35 5 16 11 -9 18 -21 15 -25z"/> <path d="M962 2918 c3 -7 -5 -25 -18 -41 -13 -15 -21 -34 -18 -42 9 -21 51 -18 74 5 31 31 25 56 -19 79 -19 11 -22 11 -19 -1z m26 -50 c-3 -7 -13 -15 -24 -17 -16 -3 -17 -1 -5 13 16 19 34 21 29 4z"/> <path d="M785 2470 c3 -5 8 -10 11 -10 2 0 4 5 4 10 0 6 -5 10 -11 10 -5 0 -7 -4 -4 -10z"/> <path d="M785 2310 c3 -5 8 -10 11 -10 2 0 4 5 4 10 0 6 -5 10 -11 10 -5 0 -7 -4 -4 -10z"/> <path d="M780 2221 c0 -12 39 -35 46 -28 3 2 -7 12 -21 21 -14 9 -25 12 -25 7z"/> <path d="M776 1698 c-35 -49 -10 -95 44 -83 28 6 43 25 20 25 -5 0 -10 13 -10 28 0 27 -15 52 -31 52 -5 0 -15 -10 -23 -22z m32 -31 c0 -13 -7 -24 -14 -24 -17 0 -17 2 -2 27 16 25 16 25 16 -3z"/> <path d="M1159 1210 c-36 -44 -39 -72 -12 -102 22 -25 45 -22 72 6 31 33 31 81 -1 113 l-25 25 -34 -42z m59 -36 c-2 -25 -10 -42 -25 -51 -21 -14 -23 -13 -35 12 -11 25 -10 29 15 51 39 33 49 30 45 -12z"/> </g> </svg> 